<svg data-v-423bf9ae="" xmlns="http://www.w3.org/2000/svg" viewBox="0 0 658 106" class="iconLeft"><!----><!----><!----><g data-v-423bf9ae="" id="962415bf-b43f-4280-adb0-96f633cd0dc1" fill="#ffffff" transform="matrix(4.608295106398049,0,0,4.608295106398049,114.08000562353112,20.83303690878263)"><path d="M4.00 10.36C6.12 10.36 7.24 8.92 7.24 7.56C7.24 6.16 6.17 5.33 4.65 4.96L3.35 4.65C1.90 4.31 1.76 3.54 1.76 3.09C1.76 2.02 2.79 1.33 3.88 1.33C5.04 1.33 5.92 2.02 5.98 3.08L6.90 3.08C6.85 1.47 5.54 0.46 3.91 0.46C2.31 0.46 0.84 1.50 0.84 3.09C0.84 3.86 1.13 5.03 3.12 5.50L4.42 5.81C5.38 6.05 6.31 6.55 6.31 7.60C6.31 8.51 5.54 9.49 4.00 9.49C2.65 9.49 1.78 8.58 1.68 7.63L0.77 7.63C0.84 9.03 2.11 10.36 4.00 10.36ZM14.52 3.68L14.52 4.94C14.03 4.06 13.02 3.54 11.91 3.54C10.08 3.54 8.60 4.96 8.60 6.94C8.60 8.93 10.09 10.36 11.91 10.36C13.01 10.36 14.03 9.84 14.52 8.95L14.52 10.22L15.41 10.22L15.41 3.68ZM11.98 9.51C10.61 9.51 9.49 8.39 9.49 6.93C9.49 5.49 10.61 4.40 11.98 4.40C13.29 4.40 14.52 5.39 14.52 6.97C14.52 8.48 13.34 9.51 11.98 9.51ZM23.13 3.68L23.13 4.94C22.64 4.06 21.63 3.54 20.52 3.54C18.69 3.54 17.21 4.96 17.21 6.94C17.21 8.93 18.70 10.36 20.52 10.36C21.62 10.36 22.64 9.84 23.13 8.96L23.13 9.30C23.13 11.82 22.08 12.63 20.48 12.63C19.70 12.63 18.89 12.24 18.41 11.47L17.65 11.89C18.30 12.95 19.38 13.48 20.48 13.48C22.61 13.48 24.02 12.42 24.02 9.25L24.02 3.68ZM20.59 9.51C19.22 9.51 18.10 8.39 18.10 6.93C18.10 5.49 19.22 4.40 20.59 4.40C21.90 4.40 23.13 5.39 23.13 6.97C23.13 8.48 21.95 9.51 20.59 9.51ZM31.09 3.68L31.09 7.31C31.08 8.89 29.96 9.48 28.92 9.48C27.86 9.48 27.08 8.71 27.08 7.45L27.08 3.68L26.18 3.68L26.18 7.49C26.17 9.30 27.24 10.36 28.83 10.36C29.64 10.36 30.70 10.00 31.09 9.07L31.09 10.22L31.99 10.22L31.99 3.68ZM39.70 3.68L39.70 4.94C39.21 4.06 38.21 3.54 37.10 3.54C35.27 3.54 33.78 4.96 33.78 6.94C33.78 8.93 35.28 10.36 37.10 10.36C38.19 10.36 39.21 9.84 39.70 8.95L39.70 10.22L40.60 10.22L40.60 3.68ZM37.17 9.51C35.80 9.51 34.68 8.39 34.68 6.93C34.68 5.49 35.80 4.40 37.17 4.40C38.47 4.40 39.70 5.39 39.70 6.97C39.70 8.48 38.53 9.51 37.17 9.51ZM45.79 3.54C44.77 3.54 44.07 4.17 43.75 5.28L43.75 3.68L42.84 3.68L42.84 10.22L43.75 10.22L43.75 7.76C43.75 6.15 44.23 4.41 45.78 4.41C46.02 4.41 46.33 4.45 46.66 4.59L46.83 3.74C46.58 3.61 46.16 3.54 45.79 3.54ZM50.72 10.36C52.58 10.36 54.15 9.00 54.15 6.93C54.15 4.86 52.58 3.54 50.72 3.54C48.86 3.54 47.31 4.86 47.31 6.93C47.31 9.00 48.86 10.36 50.72 10.36ZM50.72 9.51C49.34 9.51 48.20 8.48 48.20 6.93C48.20 5.39 49.34 4.40 50.72 4.40C52.09 4.40 53.26 5.39 53.26 6.93C53.26 8.48 52.09 9.51 50.72 9.51ZM65.37 0.57L58.30 0.57L58.30 1.44L61.36 1.44L61.36 10.22L62.29 10.22L62.29 1.44L65.37 1.44ZM68.45 3.54C67.42 3.54 66.72 4.17 66.40 5.28L66.40 3.68L65.49 3.68L65.49 10.22L66.40 10.22L66.40 7.76C66.40 6.15 66.88 4.41 68.43 4.41C68.67 4.41 68.98 4.45 69.31 4.59L69.48 3.74C69.23 3.61 68.81 3.54 68.45 3.54ZM75.88 3.68L75.88 4.94C75.39 4.06 74.38 3.54 73.28 3.54C71.44 3.54 69.96 4.96 69.96 6.94C69.96 8.93 71.46 10.36 73.28 10.36C74.37 10.36 75.39 9.84 75.88 8.95L75.88 10.22L76.78 10.22L76.78 3.68ZM73.35 9.51C71.97 9.51 70.85 8.39 70.85 6.93C70.85 5.49 71.97 4.40 73.35 4.40C74.65 4.40 75.88 5.39 75.88 6.97C75.88 8.48 74.70 9.51 73.35 9.51ZM82.18 3.54C81.37 3.54 80.30 3.92 79.91 4.86L79.91 3.68L79.02 3.68L79.02 10.22L79.91 10.22L79.91 6.59C79.94 5.01 81.05 4.42 82.10 4.42C83.15 4.42 83.94 5.19 83.94 6.45L83.94 10.22L84.84 10.22L84.84 6.41C84.84 4.61 83.76 3.54 82.18 3.54ZM88.83 10.36C90.19 10.36 91.24 9.62 91.24 8.46C91.24 7.70 90.85 6.93 89.57 6.62L88.61 6.38C88.13 6.27 87.60 6.01 87.60 5.39C87.60 4.77 88.12 4.34 88.87 4.34C89.52 4.34 90.09 4.73 90.13 5.32L91 5.32C90.96 4.14 89.95 3.54 88.86 3.54C87.61 3.54 86.70 4.31 86.70 5.38C86.70 6.47 87.44 6.94 88.37 7.17L89.31 7.39C89.98 7.56 90.34 7.91 90.34 8.44C90.34 9.10 89.77 9.56 88.83 9.56C87.88 9.56 87.37 9.00 87.28 8.46L86.45 8.46C86.56 9.70 87.70 10.36 88.83 10.36ZM96.49 3.54C95.40 3.54 94.36 4.07 93.88 4.97L93.88 3.68L92.99 3.68L92.99 13.40L93.88 13.40L93.88 8.95C94.37 9.84 95.38 10.36 96.49 10.36C98.32 10.36 99.81 8.95 99.81 6.96C99.81 4.97 98.32 3.54 96.49 3.54ZM96.42 9.51C95.12 9.51 93.88 8.51 93.88 6.93C93.88 5.42 95.06 4.40 96.42 4.40C97.80 4.40 98.92 5.52 98.92 6.97C98.92 8.41 97.80 9.51 96.42 9.51ZM104.57 10.36C106.43 10.36 108.00 9.00 108.00 6.93C108.00 4.86 106.43 3.54 104.57 3.54C102.70 3.54 101.15 4.86 101.15 6.93C101.15 9.00 102.70 10.36 104.57 10.36ZM104.57 9.51C103.18 9.51 102.05 8.48 102.05 6.93C102.05 5.39 103.18 4.40 104.57 4.40C105.94 4.40 107.10 5.39 107.10 6.93C107.10 8.48 105.94 9.51 104.57 9.51ZM112.73 3.54C111.71 3.54 111.01 4.17 110.68 5.28L110.68 3.68L109.77 3.68L109.77 10.22L110.68 10.22L110.68 7.76C110.68 6.15 111.16 4.41 112.71 4.41C112.95 4.41 113.26 4.45 113.60 4.59L113.76 3.74C113.51 3.61 113.09 3.54 112.73 3.54ZM117.84 3.68L116.34 3.68L116.34 1.08L115.46 1.08L115.46 3.68L114.27 3.68L114.27 4.45L115.46 4.45L115.46 10.22L116.34 10.22L116.34 4.45L117.84 4.45Z"></path></g><!----><g data-v-423bf9ae="" id="b886c369-e890-499f-a5ca-8c71b0a9c2d7" transform="matrix(1.0847718980577257,0,0,1.0847718980577257,0.1858066754098715,0.047146813290765976)" stroke="none" fill="#CB594D"><path d="M29.831 86.042c0 3.247 4.565 3.146 4.565 3.146 3.349 0 3.247 4.769 3.247 4.769.305 4.16 4.972 3.653 4.972 3.653h6.393c5.073 0 4.87-3.653 4.87-3.653.102-4.566 3.146-4.769 3.146-4.769 4.667 0 4.972-3.551 4.972-3.551.101-4.515 4.667-4.566 4.667-4.566l3.45.102c.42 0 .825-.059 1.213-.159 2.843-.653 3.555-3.088 3.555-3.088.101-4.464 4.87-4.87 4.87-4.87l6.139.102c2.27 0 4.109-1.84 4.109-4.109V52.711a4.109 4.109 0 10-8.218 0v5.732c0 4.972-3.551 4.741-3.551 4.741-3.047.025-3.237-3.835-3.247-4.531V37.238a4.871 4.871 0 00-9.742 0v30.019c-.246 4.897-4.87 4.175-4.87 4.175h-6.596c5.073 0 5.074-4.972 5.074-4.972v-6.187V4.871a4.87 4.87 0 10-9.74 0V57.381c-.148 4.867-3.551 4.411-3.551 4.411-1.681 0-2.421-1.205-2.74-2.44V5.022a5.022 5.022 0 00-10.044 0V66.56c0 4.361 3.458 4.831 4.546 4.871h.324s-.121.007-.324 0h-6.068c-3.406 0-4.574-2.381-4.971-3.881V21.003a4.871 4.871 0 00-9.742 0v29.932c0 3.348-3.348 3.348-3.348 3.348-3.145 0-3.146-3.348-3.146-3.348V37.39A5.023 5.023 0 000 37.39v22.526a5.023 5.023 0 005.022 5.022l7.255-.102c3.979-.004 4.248 3.517 4.261 4.234v7.231a4.871 4.871 0 004.871 4.871h3.044c5.252-.133 5.378 4.87 5.378 4.87z"></path></g><!----></svg>